# xmcd
#
# Track frame offsets:
#	150
#	7862
#	21716
#	41664
#	65530
#	80994
#	98726
#	118303
#	138158
#	154232
#	170368
#	186208
#	201517
#	214284
#	231618
#	262263
#
# Disc length: 4250 seconds
#
# Revision: 1
# Processed by: cddbd v1.5.2PL0 Copyright (c) Steve Scherf et al.
# Submitted via: audiograbber 1.83.01
#
DISCID=f8109810
DTITLE=Jazzkantine - Jazzkantine spielt Volkslieder
DYEAR=2012
DGENRE=Jazz+Funk
TTITLE0=Am Anfang
TTITLE1=Kein schöner Land in dieser Zeit
TTITLE2=Fragebogen
TTITLE3=Ode an die Freude
TTITLE4=Im Frühtau zu Berge
TTITLE5=Auf einem Baum ein Kuckuck
TTITLE6=Hoch auf dem gelben Wagen
TTITLE7=Wenn ich ein Vöglein wär
TTITLE8=Die Gedanken sind frei
TTITLE9=Du, Du liegst mir am Herzen
TTITLE10=Es tanzt ein Bi-Ba-Butzemann
TTITLE11=Dat Du min leevsten büst
TTITLE12=Am Brunnen vor dem Tore (Lindenbaum)
TTITLE13=Mutter Türkei
TTITLE14=Volxliedgut
TTITLE15=Videoclip
EXTD=
EXTT0=
EXTT1=
EXTT2=
EXTT3=
EXTT4=
EXTT5=
EXTT6=
EXTT7=
EXTT8=
EXTT9=
EXTT10=
EXTT11=
EXTT12=
EXTT13=
EXTT14=
EXTT15=
PLAYORDER=
